<svg data-v-29081953="" xmlns="http://www.w3.org/2000/svg" xmlns:xlink="http://www.w3.org/1999/xlink" viewBox="40 120 225 60"><!----><defs data-v-29081953=""><!----></defs><rect data-v-29081953="" fill="transparent" x="0" y="0" width="100%" height="100%" class="logo-background-square"></rect><defs data-v-29081953=""><!----></defs><g data-v-29081953="" id="2b4a9bc7-c481-49b9-94f3-d8a5d2be6d7c" fill="#000000" transform="matrix(2.4474623689838966,0,0,2.4474623689838966,103.06870544919576,126.0148700677029)"><path d="M3.71 14.14C5.61 14.14 6.75 12.95 6.76 11.48C6.80 8.18 2.18 8.72 2.20 6.59C2.20 5.87 2.81 5.33 3.71 5.33C4.48 5.33 5.18 5.82 5.66 6.36L6.52 5.46C5.92 4.73 4.93 4.06 3.68 4.06C2.04 4.06 0.85 5.17 0.84 6.58C0.84 9.79 5.42 9.11 5.42 11.47C5.42 12.25 4.77 12.85 3.79 12.85C2.91 12.85 2.09 12.31 1.54 11.52L0.57 12.43C1.20 13.40 2.38 14.14 3.71 14.14ZM11.52 14.11C13.64 14.11 15.09 12.45 15.09 10.50C15.09 8.55 13.64 6.89 11.52 6.89C9.41 6.89 7.95 8.55 7.95 10.50C7.95 12.45 9.41 14.11 11.52 14.11ZM11.52 12.80C10.21 12.80 9.30 11.73 9.30 10.49C9.30 9.25 10.21 8.20 11.52 8.20C12.87 8.20 13.73 9.25 13.73 10.49C13.73 11.73 12.87 12.80 11.52 12.80ZM19.87 14.11C20.83 14.11 21.50 13.85 22.05 13.41L22.05 11.89C21.63 12.36 20.87 12.80 19.98 12.80C18.59 12.80 17.64 11.76 17.64 10.50C17.64 9.23 18.59 8.20 19.98 8.20C20.87 8.20 21.63 8.64 22.05 9.11L22.05 7.59C21.50 7.15 20.83 6.89 19.87 6.89C17.70 6.89 16.30 8.55 16.30 10.50C16.30 12.45 17.70 14.11 19.87 14.11ZM24.71 5.68C25.23 5.68 25.61 5.29 25.61 4.77C25.61 4.28 25.23 3.89 24.71 3.89C24.19 3.89 23.81 4.28 23.81 4.77C23.81 5.29 24.19 5.68 24.71 5.68ZM24.05 14L25.37 14L25.37 7L24.05 7ZM32.93 7L32.93 8.12C32.38 7.39 31.57 6.90 30.53 6.90C28.59 6.90 27.26 8.48 27.26 10.50C27.26 12.52 28.59 14.10 30.53 14.10C31.57 14.10 32.38 13.61 32.93 12.88L32.93 14L34.24 14L34.24 7ZM30.76 12.82C29.50 12.82 28.62 11.79 28.62 10.50C28.62 9.23 29.50 8.19 30.76 8.19C32.02 8.19 32.93 9.27 32.93 10.50C32.93 11.73 32.02 12.82 30.76 12.82ZM36.33 14L37.65 14L37.65 2.80L36.33 2.80ZM44.31 7L42.18 12.46L40.04 7L38.61 7L41.52 13.94L40.29 16.80L41.64 16.80L45.74 7ZM51.97 7L46.16 7L46.16 8.26L49.78 8.26L46.21 13.80L46.21 14L51.88 14L51.88 12.74L48.38 12.74L51.97 7.17ZM55.89 6.90C53.83 6.90 52.46 8.55 52.46 10.50C52.46 12.46 53.80 14.11 56.03 14.11C56.98 14.11 57.82 13.85 58.41 13.41L58.41 12.08C57.74 12.54 57.02 12.84 56.10 12.84C54.89 12.84 54.03 12.14 53.82 11.03L59.16 11.03C59.32 8.82 58.07 6.90 55.89 6.90ZM55.86 8.22C56.87 8.22 57.58 8.92 57.78 9.94L53.83 9.94C54.04 8.93 54.80 8.22 55.86 8.22ZM62.09 8.20L62.09 7L60.77 7L60.77 14L62.09 14L62.09 10.23L62.10 10.29C62.10 8.78 63.13 8.25 64.12 8.41L64.12 6.86C63.18 6.86 62.47 7.49 62.09 8.20Z"></path></g><defs data-v-29081953=""><linearGradient data-v-29081953="" gradientTransform="rotate(25)" id="bcb31e33-537d-4f33-a921-cfa3940c707f" x1="0%" y1="0%" x2="100%" y2="0%"><stop data-v-29081953="" offset="0%" stop-color="#0D7CE9" stop-opacity="1"></stop><stop data-v-29081953="" offset="100%" stop-color="#15CFF1" stop-opacity="1"></stop></linearGradient></defs><g data-v-29081953="" id="91021a02-0e6c-4377-85ab-f8b201b65de3" stroke="none" fill="url(#bcb31e33-537d-4f33-a921-cfa3940c707f)" transform="matrix(0.6705375763128465,0,0,0.6705375763128465,32.18823749174513,116.45635736126518)"><defs><path d="M71.15 16.6Q62.5 2.8 42.35 0H33.6v.1Q15.65 2.55 6.65 16.45 0 26.75 0 38.45q0 12.6 6.45 22.1 11.1 16.1 38.15 16.1 9.3 0 16.85-3.35 5.3-2.4 6.9-4.7 5.2-7.1 7.2-17.6 1.2-6.15 1.2-13 0-12.3-5.6-21.4M42.9 4.3q17.5 2.3 25.15 14.6 5.05 8.2 5.05 19.25 0 12.25-4.3 20.95-6.75 13.75-22.55 12.7h-11.2Q15.8 67.95 8.6 57.75 3.65 50.8 3.65 38.6q0-10.15 5.8-19.3 7.85-12.45 23.6-15h9.85m-13.5 9.95q-2.2 2.65-3.05 3.2h-1.7q-1.3-.4-2.2-2.05-.75-1.5-1.4-1.5-.85 0-1.15.95-.15.5-.1 1.05 0 .05.55 2.25 1.35 2.15 5.3 2.15 2.9 0 4.5-2.35 1-1.55 1-2.8 0-2.65-1.75-.9m19.65 1.25q-1.55-1.4-2-1.4-1.15 0-1.15 1.2 0 1.05 1.25 2.55 1.85 2.2 5.05 2.2 2.6 0 4.15-2.25 1.05-1.65 1.05-2.9 0-.9-.55-1.5-.8-.8-2.1.9-.1.15-.65 1.4-.45 1-1.25 1.55h-1.4q-.7-.2-2.4-1.75m.8 8.45q-.4 0-.8.2-.3.2-.4.4.25.5.95 1.7.45.65.45 1.35-.15 1.05-.7 2-1.1 1.95-3.05 1.95-1.8 0-3.8-1.45-1.95-1.45-3.95-1.45-.6 0-2.6 1.25-1.95 1.25-5.4 1.25-1.15 0-2.1-1.45-.7-1.1-.7-1.65 0-.75.4-1.9t.4-2q0-.35-.1-.45-.2-.05-.35-.15-2.35 1.25-2.35 5.3 0 1.15 1 2.6 1.7 2.45 5.3 2.45 2.6 0 4.35-1.15 1.85-1.2 2.25-1.2.7 0 3.1 1.45 2.4 1.4 4.6 1.4 3.1 0 4.7-2.75 1.1-1.85 1.1-3.45-.05-1.15-.35-2.2-.65-2.05-1.95-2.05z" id="a"></path></defs><use xlink:href="#a" transform="translate(11.65 11.7)"></use></g><!----></svg>