<svg data-v-29081953="" xmlns="http://www.w3.org/2000/svg" xmlns:xlink="http://www.w3.org/1999/xlink" viewBox="0 0 300 300"><!----><defs data-v-29081953=""><!----></defs><rect data-v-29081953="" fill="transparent" x="0" y="0" width="300px" height="300px" class="logo-background-square"></rect><!----><defs data-v-29081953=""><linearGradient data-v-29081953="" gradientTransform="rotate(25)" id="3ba984a3-c811-47ab-b56d-7edba4657251" x1="0%" y1="0%" x2="100%" y2="0%"><stop data-v-29081953="" offset="0%" stop-color="#0D7CE9" stop-opacity="1"></stop><stop data-v-29081953="" offset="100%" stop-color="#15CFF1" stop-opacity="1"></stop></linearGradient></defs><g data-v-29081953="" id="844c9655-870a-4ab4-9b34-4a6bc5971d4d" fill="url(#3ba984a3-c811-47ab-b56d-7edba4657251)" stroke="none" transform="matrix(2.8664495114006514,0,0,2.8664495114006514,6.6058642856461205,6.605861551986848)"><defs><path d="M71.15 16.6Q62.5 2.8 42.35 0H33.6v.1Q15.65 2.55 6.65 16.45 0 26.75 0 38.45q0 12.6 6.45 22.1 11.1 16.1 38.15 16.1 9.3 0 16.85-3.35 5.3-2.4 6.9-4.7 5.2-7.1 7.2-17.6 1.2-6.15 1.2-13 0-12.3-5.6-21.4M42.9 4.3q17.5 2.3 25.15 14.6 5.05 8.2 5.05 19.25 0 12.25-4.3 20.95-6.75 13.75-22.55 12.7h-11.2Q15.8 67.95 8.6 57.75 3.65 50.8 3.65 38.6q0-10.15 5.8-19.3 7.85-12.45 23.6-15h9.85m-13.5 9.95q-2.2 2.65-3.05 3.2h-1.7q-1.3-.4-2.2-2.05-.75-1.5-1.4-1.5-.85 0-1.15.95-.15.5-.1 1.05 0 .05.55 2.25 1.35 2.15 5.3 2.15 2.9 0 4.5-2.35 1-1.55 1-2.8 0-2.65-1.75-.9m19.65 1.25q-1.55-1.4-2-1.4-1.15 0-1.15 1.2 0 1.05 1.25 2.55 1.85 2.2 5.05 2.2 2.6 0 4.15-2.25 1.05-1.65 1.05-2.9 0-.9-.55-1.5-.8-.8-2.1.9-.1.15-.65 1.4-.45 1-1.25 1.55h-1.4q-.7-.2-2.4-1.75m.8 8.45q-.4 0-.8.2-.3.2-.4.4.25.5.95 1.7.45.65.45 1.35-.15 1.05-.7 2-1.1 1.95-3.05 1.95-1.8 0-3.8-1.45-1.95-1.45-3.95-1.45-.6 0-2.6 1.25-1.95 1.25-5.4 1.25-1.15 0-2.1-1.45-.7-1.1-.7-1.65 0-.75.4-1.9t.4-2q0-.35-.1-.45-.2-.05-.35-.15-2.35 1.25-2.35 5.3 0 1.15 1 2.6 1.7 2.45 5.3 2.45 2.6 0 4.35-1.15 1.85-1.2 2.25-1.2.7 0 3.1 1.45 2.4 1.4 4.6 1.4 3.1 0 4.7-2.75 1.1-1.85 1.1-3.45-.05-1.15-.35-2.2-.65-2.05-1.95-2.05z" id="a"></path></defs><use xlink:href="#a" transform="translate(11.65 11.7)"></use></g><!----></svg>